<?xml version="1.0" encoding="UTF-8"?>
<svg width="21px" height="24px" viewBox="0 0 21 24" version="1.1" xmlns="http://www.w3.org/2000/svg" xmlns:xlink="http://www.w3.org/1999/xlink">
    <!-- Generator: Sketch 51 (57462) - http://www.bohemiancoding.com/sketch -->
    <title>ic_home</title>
    <desc>Created with Sketch.</desc>
    <defs></defs>
    <g id="zsinagogo_app" stroke="none" stroke-width="1" fill="none" fill-rule="evenodd">
        <g id="main" transform="translate(-28.000000, -907.000000)">
            <rect fill="#FFFFFF" x="0" y="0" width="375" height="941"></rect>
            <g id="Group-10" transform="translate(0.000000, 896.000000)" fill="#434656">
                <g id="UI-Bars-/-Tab-bar">
                    <g id="icon/home" transform="translate(23.000000, 8.000000)">
                        <path d="M15.5,20.5 C14.3707895,20.5 13.4561801,19.605 13.4561801,18.5 C13.4561801,17.395 14.3707895,16.5 15.5,16.5 C16.6292105,16.5 17.5438199,17.395 17.5438199,18.5 C17.5438199,19.605 16.6292105,20.5 15.5,20.5 Z M25.5249366,11.84 L16.5627863,3.42 C15.9700786,2.86 15.0299214,2.86 14.4372137,3.42 L5.47506343,11.84 C4.47870124,12.775 5.1531618,14.42 6.53784978,14.42 L7.32472043,14.42 L7.32472043,24.5 C7.32472043,25.88 8.46925957,27 9.8794953,27 L21.1205047,27 C22.5307404,27 23.6752796,25.88 23.6752796,24.5 L23.6752796,14.42 L24.4621502,14.42 C25.8468382,14.42 26.5212988,12.775 25.5249366,11.84 Z" id="Fill-297"></path>
                    </g>
                </g>
            </g>
        </g>
    </g>
</svg>