<?xml version="1.0" encoding="UTF-8"?>
<svg width="23px" height="21px" viewBox="0 0 23 21" version="1.1" xmlns="http://www.w3.org/2000/svg" xmlns:xlink="http://www.w3.org/1999/xlink">
    <!-- Generator: Sketch 51 (57462) - http://www.bohemiancoding.com/sketch -->
    <title>ic_arfolyam</title>
    <desc>Created with Sketch.</desc>
    <defs></defs>
    <g id="zsinagogo_app" stroke="none" stroke-width="1" fill="none" fill-rule="evenodd">
        <g id="main" transform="translate(-292.000000, -172.000000)">
            <rect fill="#FFFFFF" x="0" y="0" width="375" height="941"></rect>
            <g id="Group-4" transform="translate(267.000000, 172.000000)" fill="#434656">
                <path d="M30.0422939,14.8196512 C30.2255847,14.8196512 30.4100734,14.7476163 30.550237,14.6047674 L35.9075994,9.14476744 C36.0956821,8.9530814 36.3999687,8.9530814 36.5868535,9.14476744 L38.4305433,11.0237791 C39.1529246,11.7612209 40.4167925,11.7612209 41.1403719,11.0237791 L46.0580759,6.01063953 L46.0580759,8.36337209 C46.0580759,8.76872093 46.3803323,9.09715116 46.7768634,9.09715116 C47.1733944,9.09715116 47.4944528,8.76872093 47.4944528,8.36337209 L47.4944528,4.24273256 C47.4944528,4.1475 47.4764832,4.05348837 47.4393458,3.96313953 C47.3662691,3.78366279 47.2273035,3.64081395 47.0500026,3.56755814 C46.9625501,3.5297093 46.8703057,3.51017442 46.7768634,3.51017442 L42.733684,3.51017442 C42.337153,3.51017442 42.0148966,3.83860465 42.0148966,4.24273256 C42.0148966,4.6480814 42.337153,4.9752907 42.733684,4.9752907 L45.0421897,4.9752907 L40.1244857,9.9872093 C39.9376009,10.1776744 39.6333142,10.1776744 39.4464295,9.9872093 L37.6027397,8.10819767 C36.8552008,7.34633721 35.639252,7.34633721 34.8929111,8.10819767 L29.5343507,13.5694186 C29.2540236,13.8551163 29.2540236,14.3190698 29.5343507,14.6047674 C29.6745143,14.7476163 29.8590031,14.8196512 30.0422939,14.8196512 M48,20.2674419 C48,20.6727907 47.6789416,21 47.2824105,21 L26.9167665,21 C25.860149,21 25,20.124593 25,19.0465116 L25,0.73255814 C25,0.328430233 25.3222564,0 25.7187874,0 C26.1153185,0 26.4363769,0.328430233 26.4363769,0.73255814 L26.4363769,19.0465116 C26.4363769,19.3163372 26.6520131,19.5348837 26.9167665,19.5348837 L47.2824105,19.5348837 C47.6789416,19.5348837 48,19.863314 48,20.2674419" id="ic_arfolyam"></path>
            </g>
        </g>
    </g>
</svg>