<?xml version="1.0" encoding="UTF-8"?>
<svg width="19px" height="21px" viewBox="0 0 19 21" version="1.1" xmlns="http://www.w3.org/2000/svg" xmlns:xlink="http://www.w3.org/1999/xlink">
    <!-- Generator: Sketch 51 (57462) - http://www.bohemiancoding.com/sketch -->
    <title>ic_aznap</title>
    <desc>Created with Sketch.</desc>
    <defs></defs>
    <g id="zsinagogo_app" stroke="none" stroke-width="1" fill="none" fill-rule="evenodd">
        <g id="explore" transform="translate(-30.000000, -439.000000)">
            <rect fill="#FFFFFF" x="0" y="0" width="375" height="1084"></rect>
            <path d="M34.2053333,448.442446 L39.5,448.442446 L39.5,453.705036 L34.2053333,453.705036 L34.2053333,448.442446 Z M46.872,457.884892 L46.872,446.377698 L32.128,446.377698 L32.128,457.884892 L46.872,457.884892 Z M46.872,441.115108 C47.4462251,441.115108 47.9444423,441.324938 48.3666667,441.744604 C48.788891,442.164271 49,442.65947 49,443.230216 L49,457.884892 C49,458.455638 48.788891,458.950837 48.3666667,459.370504 C47.9444423,459.79017 47.4462251,460 46.872,460 L32.128,460 C31.5368859,460 31.0344465,459.79017 30.6206667,459.370504 C30.2068868,458.950837 30,458.455638 30,457.884892 L30,443.230216 C30,442.65947 30.2068868,442.164271 30.6206667,441.744604 C31.0344465,441.324938 31.5368859,441.115108 32.128,441.115108 L33.1666667,441.115108 L33.1666667,439 L35.2946667,439 L35.2946667,441.115108 L43.7053333,441.115108 L43.7053333,439 L45.8333333,439 L45.8333333,441.115108 L46.872,441.115108 Z" id="ic_aznap" fill="#434656"></path>
        </g>
    </g>
</svg>