<?xml version="1.0" encoding="UTF-8"?>
<svg width="22px" height="22px" viewBox="0 0 22 22" version="1.1" xmlns="http://www.w3.org/2000/svg" xmlns:xlink="http://www.w3.org/1999/xlink">
    <!-- Generator: Sketch 51 (57462) - http://www.bohemiancoding.com/sketch -->
    <title>ic_beallitasok</title>
    <desc>Created with Sketch.</desc>
    <defs></defs>
    <g id="zsinagogo_app" stroke="none" stroke-width="1" fill="none" fill-rule="evenodd">
        <g id="menu" transform="translate(-46.000000, -120.000000)">
            <rect fill="#FFFFFF" x="0" y="0" width="375" height="667"></rect>
            <g id="Group" fill="#C49565">
                <path d="M57,135.125 C54.5952542,135.125 52.6453296,133.277917 52.6453296,131 C52.6453296,128.722083 54.5952542,126.875 57,126.875 C59.4047458,126.875 61.3546704,128.722083 61.3546704,131 C61.3546704,133.277917 59.4047458,135.125 57,135.125 Z M67.5141098,133.575833 L66.812524,133.190833 C66.4738274,133.002917 66.2851251,132.645417 66.3383488,132.274167 C66.4012496,131.857083 66.4351193,131.435417 66.4351193,131 C66.4351193,130.564583 66.4012496,130.142917 66.3383488,129.725833 C66.2851251,129.354583 66.4689889,128.997083 66.904456,128.75875 L67.5141098,128.424167 C67.9205457,128.204167 68.0995711,127.74125 67.9447383,127.324167 C67.7366819,126.755833 67.4705631,126.210417 67.1657362,125.687917 C67.0931584,125.559583 67.0109035,125.426667 66.9286486,125.298333 C66.6044676,124.789583 66.2367398,124.308333 65.8303039,123.859167 C65.525477,123.52 65.0125936,123.442083 64.5190643,123.7125 L63.8997334,124.051667 C63.5610368,124.239583 63.1352468,124.212083 62.8255813,123.982917 C62.1239955,123.455833 61.3449934,123.025 60.4982519,122.704167 C60.1353627,122.566667 59.9031136,122.2275 59.9031136,121.860833 L59.9031136,121.08625 C59.9031136,120.641667 59.5692556,120.26125 59.1095959,120.17875 C58.4225257,120.059583 57.7209399,120 57,120 C56.2790601,120 55.5774743,120.059583 54.8904041,120.17875 C54.4307444,120.26125 54.0968864,120.641667 54.0968864,121.08625 L54.0968864,121.860833 C54.0968864,122.2275 53.8646373,122.566667 53.5017481,122.704167 C52.6550066,123.025 51.8760045,123.455833 51.1744187,123.982917 C50.8647532,124.212083 50.4389632,124.239583 50.1002666,124.051667 L49.3938423,123.662083 C48.9874064,123.442083 48.474523,123.52 48.1696961,123.859167 C47.7632602,124.308333 47.3955324,124.789583 47.0713514,125.298333 C46.9890965,125.426667 46.9068416,125.559583 46.8342638,125.687917 C46.5294369,126.210417 46.2633181,126.755833 46.0552617,127.324167 C45.9004289,127.74125 46.0794543,128.204167 46.4858902,128.424167 L47.187476,128.809167 C47.5261726,128.997083 47.7148749,129.354583 47.6616512,129.725833 C47.5987504,130.142917 47.5648807,130.564583 47.5648807,131 C47.5648807,131.435417 47.5987504,131.857083 47.6616512,132.274167 C47.7148749,132.645417 47.5261726,133.002917 47.187476,133.190833 L46.4858902,133.575833 C46.0794543,133.795833 45.9004289,134.25875 46.0552617,134.675833 C46.2633181,135.244167 46.5294369,135.789583 46.8342638,136.312083 C46.9068416,136.440417 46.9890965,136.573333 47.0713514,136.701667 C47.3955324,137.210417 47.7632602,137.691667 48.1696961,138.140833 C48.474523,138.48 48.9874064,138.557917 49.3938423,138.337917 L50.1002666,137.948333 C50.4389632,137.760417 50.8647532,137.787917 51.1744187,138.017083 C51.8760045,138.544167 52.6550066,138.975 53.5017481,139.295833 C53.8646373,139.433333 54.0968864,139.7725 54.0968864,140.139167 L54.0968864,140.91375 C54.0968864,141.358333 54.4307444,141.73875 54.8904041,141.82125 C55.5774743,141.940417 56.2790601,142 57,142 C57.7209399,142 58.4225257,141.940417 59.1095959,141.82125 C59.5692556,141.73875 59.9031136,141.358333 59.9031136,140.91375 L59.9031136,140.139167 C59.9031136,139.7725 60.1353627,139.433333 60.4982519,139.295833 C61.3449934,138.975 62.1239955,138.544167 62.8255813,138.017083 C63.1352468,137.787917 63.5610368,137.760417 63.8997334,137.948333 L64.6061577,138.337917 C65.0125936,138.557917 65.525477,138.48 65.8303039,138.140833 C66.2367398,137.691667 66.6044676,137.210417 66.9286486,136.701667 C67.0109035,136.573333 67.0931584,136.440417 67.1657362,136.312083 C67.4705631,135.789583 67.7366819,135.244167 67.9447383,134.675833 C68.0995711,134.25875 67.9205457,133.795833 67.5141098,133.575833 Z" id="ic_beallitasok"></path>
            </g>
        </g>
    </g>
</svg>