<?xml version="1.0" encoding="UTF-8"?>
<svg width="22px" height="22px" viewBox="0 0 22 22" version="1.1" xmlns="http://www.w3.org/2000/svg" xmlns:xlink="http://www.w3.org/1999/xlink">
    <!-- Generator: Sketch 51 (57462) - http://www.bohemiancoding.com/sketch -->
    <title>ic_calendar</title>
    <desc>Created with Sketch.</desc>
    <defs></defs>
    <g id="zsinagogo_app" stroke="none" stroke-width="1" fill="none" fill-rule="evenodd">
        <g id="main" transform="translate(-327.000000, -908.000000)">
            <rect fill="#FFFFFF" x="0" y="0" width="375" height="941"></rect>
            <g id="Group-10" transform="translate(0.000000, 896.000000)">
                <g id="UI-Bars-/-Tab-bar">
                    <g id="icon/calendar" transform="translate(323.000000, 8.000000)">
                        <g id="4-Calendar" transform="translate(4.000000, 4.000000)">
                            <path d="M19.3605116,18.5874419 C19.3605116,18.8688372 19.1302791,19.0990698 18.8488837,19.0990698 L3.50004651,19.0990698 C3.21865116,19.0990698 2.9884186,18.8688372 2.9884186,18.5874419 L2.9884186,8.35488372 C2.9884186,8.07348837 3.21865116,7.84325581 3.50004651,7.84325581 L18.8488837,7.84325581 C19.1302791,7.84325581 19.3605116,8.07348837 19.3605116,8.35488372 L19.3605116,18.5874419 Z M19.3605116,2.72697674 L18.3372558,2.72697674 L18.3372558,1.70372093 C18.3372558,0.854418605 17.6516744,0.168837209 16.8023721,0.168837209 C15.9530698,0.168837209 15.2674884,0.854418605 15.2674884,1.70372093 L15.2674884,2.72697674 L7.08144186,2.72697674 L7.08144186,1.70372093 C7.08144186,0.854418605 6.39586047,0.168837209 5.54655814,0.168837209 C4.69725581,0.168837209 4.01167442,0.854418605 4.01167442,1.70372093 L4.01167442,2.72697674 L2.9884186,2.72697674 C1.57632558,2.72697674 0.43027907,3.87302326 0.43027907,5.28511628 L0.43027907,19.0990698 C0.43027907,20.5111628 1.57632558,21.6572093 2.9884186,21.6572093 L19.3605116,21.6572093 C20.7726047,21.6572093 21.9186512,20.5111628 21.9186512,19.0990698 L21.9186512,5.28511628 C21.9186512,3.87302326 20.7726047,2.72697674 19.3605116,2.72697674 Z" id="Fill-54" fill="#434656"></path>
                            <path d="M7.59306977,11.4246512 C7.59306977,11.9925581 7.13465116,12.447907 6.56981395,12.447907 C6.00446512,12.447907 5.54655814,11.9925581 5.54655814,11.4246512 C5.54655814,10.8618605 6.00446512,10.4013953 6.56981395,10.4013953 C7.13465116,10.4013953 7.59306977,10.8618605 7.59306977,11.4246512" id="Fill-55" fill="#B7A99B"></path>
                            <path d="M7.59306977,15.5176744 C7.59306977,16.0855814 7.13465116,16.5409302 6.56981395,16.5409302 C6.00446512,16.5409302 5.54655814,16.0855814 5.54655814,15.5176744 C5.54655814,14.9548837 6.00446512,14.4944186 6.56981395,14.4944186 C7.13465116,14.4944186 7.59306977,14.9548837 7.59306977,15.5176744" id="Fill-56" fill="#B7A99B"></path>
                            <path d="M12.1977209,11.4246512 C12.1977209,11.9925581 11.7393023,12.447907 11.1744651,12.447907 C10.6091163,12.447907 10.1512093,11.9925581 10.1512093,11.4246512 C10.1512093,10.8618605 10.6091163,10.4013953 11.1744651,10.4013953 C11.7393023,10.4013953 12.1977209,10.8618605 12.1977209,11.4246512" id="Fill-57" fill="#B7A99B"></path>
                            <path d="M12.1977209,15.5176744 C12.1977209,16.0855814 11.7393023,16.5409302 11.1744651,16.5409302 C10.6091163,16.5409302 10.1512093,16.0855814 10.1512093,15.5176744 C10.1512093,14.9548837 10.6091163,14.4944186 11.1744651,14.4944186 C11.7393023,14.4944186 12.1977209,14.9548837 12.1977209,15.5176744" id="Fill-58" fill="#B7A99B"></path>
                            <path d="M16.8023721,11.4246512 C16.8023721,11.9925581 16.3439535,12.447907 15.7791163,12.447907 C15.2137674,12.447907 14.7558605,11.9925581 14.7558605,11.4246512 C14.7558605,10.8618605 15.2137674,10.4013953 15.7791163,10.4013953 C16.3439535,10.4013953 16.8023721,10.8618605 16.8023721,11.4246512" id="Fill-59" fill="#B7A99B"></path>
                            <path d="M16.8023721,15.5176744 C16.8023721,16.0855814 16.3439535,16.5409302 15.7791163,16.5409302 C15.2137674,16.5409302 14.7558605,16.0855814 14.7558605,15.5176744 C14.7558605,14.9548837 15.2137674,14.4944186 15.7791163,14.4944186 C16.3439535,14.4944186 16.8023721,14.9548837 16.8023721,15.5176744" id="Fill-60" fill="#B7A99B"></path>
                        </g>
                    </g>
                </g>
            </g>
        </g>
    </g>
</svg>