<?xml version="1.0" encoding="UTF-8"?>
<svg width="22px" height="22px" viewBox="0 0 22 22" version="1.1" xmlns="http://www.w3.org/2000/svg" xmlns:xlink="http://www.w3.org/1999/xlink">
    <!-- Generator: Sketch 51 (57462) - http://www.bohemiancoding.com/sketch -->
    <title>ic_esemenyek</title>
    <desc>Created with Sketch.</desc>
    <defs></defs>
    <g id="zsinagogo_app" stroke="none" stroke-width="1" fill="none" fill-rule="evenodd">
        <g id="main" transform="translate(-177.000000, -908.000000)">
            <rect fill="#FFFFFF" x="0" y="0" width="375" height="941"></rect>
            <g id="Group-10" transform="translate(0.000000, 896.000000)">
                <g id="UI-Bars-/-Tab-bar">
                    <g id="icon/explore" transform="translate(173.000000, 8.000000)">
                        <g id="compass" transform="translate(4.000000, 4.000000)">
                            <g id="Group" fill-rule="nonzero">
                                <path d="M6.25670833,15.5769167 L13.5799583,13.5799583 L15.5769167,6.25670833 L8.919625,8.919625 L6.25670833,15.5769167 Z M10.330375,10.330375 L12.83975,9.326625 L12.0867083,12.0867083 L9.326625,12.83975 L10.330375,10.330375 Z" id="Shape" fill="#B7A99B"></path>
                                <path d="M11.9166667,0.04125 L11.9166667,0 L10.0833333,0 L10.0833333,0.04125 C4.747875,0.484 0.484,4.747875 0.04125,10.0833333 L0,10.0833333 L0,11.9166667 L0.04125,11.9166667 C0.484,17.252125 4.747875,21.516 10.0833333,21.95875 L10.0833333,22 L11.9166667,22 L11.9166667,21.95875 C17.252125,21.516 21.516,17.252125 21.95875,11.9166667 L22,11.9166667 L22,10.0833333 L21.95875,10.0833333 C21.516,4.747875 17.252125,0.484 11.9166667,0.04125 Z M20.120375,11.9166667 C19.688625,16.2405833 16.2405833,19.688625 11.9166667,20.120375 L11.9166667,18.3333333 L10.0833333,18.3333333 L10.0833333,20.120375 C5.75941667,19.688625 2.311375,16.2405833 1.879625,11.9166667 L3.66666667,11.9166667 L3.66666667,10.0833333 L1.879625,10.0833333 C2.311375,5.75941667 5.75941667,2.311375 10.0833333,1.879625 L10.0833333,4.125 L11.9166667,4.125 L11.9166667,1.879625 C16.2405833,2.311375 19.688625,5.75941667 20.120375,10.0833333 L17.875,10.0833333 L17.875,11.9166667 L20.120375,11.9166667 Z" id="Shape" fill="#434656"></path>
                            </g>
                        </g>
                    </g>
                </g>
            </g>
        </g>
    </g>
</svg>