<?xml version="1.0" encoding="UTF-8"?>
<svg width="34px" height="29px" viewBox="0 0 34 29" version="1.1" xmlns="http://www.w3.org/2000/svg" xmlns:xlink="http://www.w3.org/1999/xlink">
    <!-- Generator: Sketch 51 (57462) - http://www.bohemiancoding.com/sketch -->
    <title>ic_ido_felhos</title>
    <desc>Created with Sketch.</desc>
    <defs></defs>
    <g id="zsinagogo_app" stroke="none" stroke-width="1" fill="none" fill-rule="evenodd">
        <g id="main" transform="translate(-56.000000, -168.000000)">
            <rect fill="#FFFFFF" x="0" y="0" width="375" height="941"></rect>
            <g id="Group-6" transform="translate(17.000000, 168.000000)" fill-rule="nonzero">
                <g id="ic_ido_felhos" transform="translate(39.000000, 0.000000)">
                    <path d="M18.1869091,9.03319149 C19.1819922,7.05611451 21.4126637,6.02633738 23.5664362,6.54976253 C25.7202088,7.07318768 27.2269001,9.01124531 27.2,11.223617 C27.2094122,11.3756706 27.2094122,11.5281592 27.2,11.6802128 C28.0049992,12.1018028 28.7442582,12.6380584 29.3945455,13.2721277 C29.5878439,12.6066917 29.6815832,11.9164019 29.6727273,11.223617 C29.6727911,7.91668423 27.4216961,5.03254003 24.2091911,4.22363409 C20.9966861,3.41472814 17.6442872,4.8879175 16.0727273,7.79914894 C16.8211021,8.1310098 17.5301861,8.54490034 18.1869091,9.03319149 Z" id="Shape" fill="#FFE991"></path>
                    <path d="M29.3450909,13.2721277 C28.6948036,12.6380584 27.9555447,12.1018028 27.1505455,11.6802128 C26.057865,11.1064881 24.858285,10.7640943 23.6269091,10.6744681 C22.5017284,10.5978145 21.3720497,10.729607 20.2949091,11.0631915 C18.0150259,8.203063 14.4712515,6.64562205 10.8181818,6.89829787 C5.29660532,7.36587727 0.954271949,11.8051296 0.618181818,17.3259574 C0.467376777,20.3376637 1.5617171,23.2791381 3.64534748,25.4626678 C5.72897787,27.6461974 8.61922886,28.8803549 11.6403636,28.8765957 L22.9963636,28.8765957 C26.7086262,28.8892212 30.0558578,26.6482908 31.4526021,23.2152481 C32.8493464,19.7822055 32.0151305,15.8464216 29.3450909,13.2721277 Z M22.9963636,26.4085106 L11.6403636,26.4085106 C9.29703124,26.4114235 7.05521613,25.4541665 5.43903603,23.7605382 C3.82285593,22.0669099 2.97399472,19.7853838 3.09090909,17.4493617 C3.34869449,13.167588 6.71530589,9.72322397 10.9974545,9.36021277 C11.2138182,9.36021277 11.4301818,9.36021277 11.6465455,9.36021277 C14.5051141,9.34949239 17.1762076,10.7788263 18.7494545,13.1610638 C19.1192239,13.7060107 19.8226943,13.9151068 20.4309091,13.6608511 C21.3867213,13.264757 22.4210991,13.09374 23.4538182,13.1610638 C26.845692,13.4104227 29.5160862,16.1499892 29.6727273,19.5410638 C29.7314235,21.3444048 29.0536173,23.0941748 27.7947674,24.3890541 C26.5359174,25.6839334 24.8040446,26.4128095 22.9963636,26.4085106 Z" id="Shape" fill="#6ABCFF"></path>
                    <path d="M15.1021818,5.26319149 C15.2752319,5.43803807 15.5112174,5.53644617 15.7574545,5.53644617 C16.0036917,5.53644617 16.2396772,5.43803807 16.4127273,5.26319149 C16.7709373,4.90045716 16.7709373,4.31784071 16.4127273,3.95510638 L15.8254545,3.33808511 C15.462038,2.98054752 14.8783257,2.98054752 14.5149091,3.33808511 C14.3397336,3.51081027 14.2411404,3.74635274 14.2411404,3.99212766 C14.2411404,4.23790258 14.3397336,4.47344505 14.5149091,4.64617021 L15.1021818,5.26319149 Z" id="Shape" fill="#FFE991"></path>
                    <rect id="Rectangle-path" fill="#FFE991" x="30.7421818" y="10.2980851" width="2.65818182" height="1.85106383" rx="0.900000036"></rect>
                    <path d="M29.9323636,5.63340426 L30.7607273,4.93617021 C31.0125021,4.71572975 31.1273268,4.37796625 31.0619481,4.05011197 C30.9965694,3.72225769 30.7609198,3.4541215 30.4437663,3.3467077 C30.1266128,3.2392939 29.7761384,3.30892121 29.5243636,3.5293617 L28.7207273,4.22659574 C28.3315171,4.56736719 28.2927694,5.15854183 28.6341818,5.54702128 C28.9755942,5.93550072 29.5678808,5.9741757 29.9570909,5.63340426 L29.9323636,5.63340426 Z" id="Shape" fill="#FFE991"></path>
                    <rect id="Rectangle-path" fill="#FFE991" x="22.5512727" y="0" width="1.85454545" height="2.78893617" rx="0.900000036"></rect>
                </g>
            </g>
        </g>
    </g>
</svg>