<?xml version="1.0" encoding="UTF-8"?>
<svg width="17px" height="22px" viewBox="0 0 17 22" version="1.1" xmlns="http://www.w3.org/2000/svg" xmlns:xlink="http://www.w3.org/1999/xlink">
    <!-- Generator: Sketch 51 (57462) - http://www.bohemiancoding.com/sketch -->
    <title>ic_impresszum</title>
    <desc>Created with Sketch.</desc>
    <defs></defs>
    <g id="zsinagogo_app" stroke="none" stroke-width="1" fill="none" fill-rule="evenodd">
        <g id="menu" transform="translate(-49.000000, -236.000000)">
            <rect fill="#FFFFFF" x="0" y="0" width="375" height="667"></rect>
            <g id="Group" fill="#C49565">
                <path d="M63.4452778,243.791667 L60.3333333,243.791667 C59.03,243.791667 57.9722222,242.765 57.9722222,241.5 L57.9722222,238.479583 C57.9722222,238.071667 58.4822222,237.87 58.7797222,238.15875 L63.7758333,243.007917 C64.0733333,243.296667 63.8655556,243.791667 63.4452778,243.791667 Z M60.3333333,253.416667 L54.6666667,253.416667 C54.1472222,253.416667 53.7222222,253.004167 53.7222222,252.5 C53.7222222,251.995833 54.1472222,251.583333 54.6666667,251.583333 L60.3333333,251.583333 C60.8527778,251.583333 61.2777778,251.995833 61.2777778,252.5 C61.2777778,253.004167 60.8527778,253.416667 60.3333333,253.416667 Z M54.6666667,247.458333 L57.9722222,247.458333 C58.4916667,247.458333 58.9166667,247.870833 58.9166667,248.375 C58.9166667,248.879167 58.4916667,249.291667 57.9722222,249.291667 L54.6666667,249.291667 C54.1472222,249.291667 53.7222222,248.879167 53.7222222,248.375 C53.7222222,247.870833 54.1472222,247.458333 54.6666667,247.458333 Z M65.3105556,241.7475 L60.0783333,236.669167 C59.6391667,236.242917 59.0394444,236 58.4113889,236 L51.3611111,236 C50.0577778,236 49,237.026667 49,238.291667 L49,255.708333 C49,256.973333 50.0577778,258 51.3611111,258 L63.6388889,258 C64.9422222,258 66,256.973333 66,255.708333 L66,243.365417 C66,242.755833 65.7497222,242.17375 65.3105556,241.7475 Z" id="ic_impresszum"></path>
            </g>
        </g>
    </g>
</svg>