<?xml version="1.0" encoding="UTF-8"?>
<svg width="20px" height="20px" viewBox="0 0 20 20" version="1.1" xmlns="http://www.w3.org/2000/svg" xmlns:xlink="http://www.w3.org/1999/xlink">
    <!-- Generator: Sketch 51 (57462) - http://www.bohemiancoding.com/sketch -->
    <title>ic_kereses</title>
    <desc>Created with Sketch.</desc>
    <defs></defs>
    <g id="zsinagogo_app" stroke="none" stroke-width="1" fill="none" fill-rule="evenodd">
        <g id="main" transform="translate(-340.000000, -40.000000)">
            <rect fill="#FFFFFF" x="0" y="0" width="375" height="941"></rect>
            <path d="M342.380967,48.5714286 C342.380967,45.1580952 345.158126,42.3809524 348.57148,42.3809524 C351.984833,42.3809524 354.761993,45.1580952 354.761993,48.5714286 C354.761993,51.9847619 351.984833,54.7619048 348.57148,54.7619048 C345.158126,54.7619048 342.380967,51.9847619 342.380967,48.5714286 Z M359.302496,55.9352381 L356.076762,52.7095238 C356.754385,51.482381 357.142959,50.072381 357.142959,48.5714286 C357.142959,43.837619 353.305317,40 348.57148,40 C343.837642,40 340,43.837619 340,48.5714286 C340,53.3052381 343.837642,57.1428571 348.57148,57.1428571 C350.072441,57.1428571 351.482449,56.7547619 352.709123,56.0766667 L355.935333,59.3028571 C356.865338,60.232381 358.372967,60.232381 359.302496,59.3028571 C360.232501,58.3728571 360.232501,56.8652381 359.302496,55.9352381 Z" id="ic_kereses" fill="#434656"></path>
        </g>
    </g>
</svg>