<?xml version="1.0" encoding="UTF-8"?>
<svg width="21px" height="21px" viewBox="0 0 21 21" version="1.1" xmlns="http://www.w3.org/2000/svg" xmlns:xlink="http://www.w3.org/1999/xlink">
    <!-- Generator: Sketch 51 (57462) - http://www.bohemiancoding.com/sketch -->
    <title>ic_kapcsolat</title>
    <desc>Created with Sketch.</desc>
    <defs></defs>
    <g id="zsinagogo_app" stroke="none" stroke-width="1" fill="none" fill-rule="evenodd">
        <g id="menu" transform="translate(-47.000000, -179.000000)">
            <rect fill="#FFFFFF" x="0" y="0" width="375" height="667"></rect>
            <g id="Group" fill="#C49565">
                <path d="M62.4637808,194.75 L55.1612192,194.75 C54.1861312,194.75 53.4124201,193.967273 53.5873,193.103409 C54.0059519,191.060682 56.1840018,189.5 58.8125,189.5 C61.4409982,189.5 63.6190481,191.060682 64.0377,193.103409 C64.2125799,193.967273 63.4388688,194.75 62.4637808,194.75 Z M59,184 C60.1066667,184 61,184.893333 61,186 C61,187.106667 60.1066667,188 59,188 C57.8933333,188 57,187.106667 57,186 C57,184.893333 57.8933333,184 59,184 Z M65.5,179 L52,179 C50.62,179 49.5,180.12 49.5,181.5 L49.5,182.5 L48.5,182.5 C47.67,182.5 47,183.17 47,184 C47,184.83 47.67,185.5 48.5,185.5 L49.5,185.5 L49.5,188 L48.5,188 C47.67,188 47,188.67 47,189.5 C47,190.33 47.67,191 48.5,191 L49.5,191 L49.5,193.5 L48.5,193.5 C47.67,193.5 47,194.17 47,195 C47,195.83 47.67,196.5 48.5,196.5 L49.5,196.5 L49.5,197.5 C49.5,198.88 50.62,200 52,200 L65.5,200 C66.88,200 68,198.88 68,197.5 L68,181.5 C68,180.12 66.88,179 65.5,179 Z" id="ic_kapcsolat"></path>
            </g>
        </g>
    </g>
</svg>