<?xml version="1.0" encoding="UTF-8"?>
<svg width="25px" height="19px" viewBox="0 0 25 19" version="1.1" xmlns="http://www.w3.org/2000/svg" xmlns:xlink="http://www.w3.org/1999/xlink">
    <!-- Generator: Sketch 51 (57462) - http://www.bohemiancoding.com/sketch -->
    <title>ic_map</title>
    <desc>Created with Sketch.</desc>
    <defs></defs>
    <g id="zsinagogo_app" stroke="none" stroke-width="1" fill="none" fill-rule="evenodd">
        <g id="main" transform="translate(-101.000000, -910.000000)">
            <rect fill="#FFFFFF" x="0" y="0" width="375" height="941"></rect>
            <g id="Group-10" transform="translate(0.000000, 896.000000)">
                <g id="UI-Bars-/-Tab-bar">
                    <g id="icon/map" transform="translate(98.000000, 8.000000)">
                        <path d="M8.61377551,24.5121622 L4.31836735,22.5197297 C3.77602041,22.2681081 3.42908163,21.7186486 3.42908163,21.1178378 L3.42908163,8.04891892 C3.42908163,6.92432432 4.58673469,6.17972973 5.60102041,6.65216216 L9.46887755,8.44432432 C9.83010204,8.61378378 10.0617347,8.97837838 10.0617347,9.37891892 L10.0617347,23.5827027 C10.0617347,24.3324324 9.28979592,24.8254054 8.61377551,24.5121622" id="Fill-211" fill="#434656"></path>
                        <path d="M18.6265306,22.3708108 L13.5244898,24.5737838 C12.8515306,24.8613514 12.102551,24.3632432 12.102551,23.6289189 L12.102551,9.39945946 C12.102551,8.98864865 12.3454082,8.61891892 12.7209184,8.45459459 L17.8229592,6.25675676 C18.4964286,5.96405405 19.2454082,6.46216216 19.2454082,7.19648649 L19.2454082,21.4259459 C19.2454082,21.8367568 19.0020408,22.2116216 18.6265306,22.3708108" id="Fill-212" fill="#B7A99B"></path>
                        <path d="M25.7469388,24.1783784 L21.8790816,22.3810811 C21.5173469,22.2116216 21.2862245,21.847027 21.2862245,21.4464865 L21.2862245,7.24783784 C21.2862245,6.49810811 22.0581633,6 22.7341837,6.31324324 L27.0295918,8.31081081 C27.5719388,8.56243243 27.9188776,9.10675676 27.9188776,9.70756757 L27.9188776,22.7764865 C27.9188776,23.9010811 26.7607143,24.6456757 25.7469388,24.1783784" id="Fill-213" fill="#434656"></path>
                    </g>
                </g>
            </g>
        </g>
    </g>
</svg>