<?xml version="1.0" encoding="UTF-8"?>
<svg width="20px" height="18px" viewBox="0 0 20 18" version="1.1" xmlns="http://www.w3.org/2000/svg" xmlns:xlink="http://www.w3.org/1999/xlink">
    <!-- Generator: Sketch 51 (57462) - http://www.bohemiancoding.com/sketch -->
    <title>ic_news</title>
    <desc>Created with Sketch.</desc>
    <defs></defs>
    <g id="zsinagogo_app" stroke="none" stroke-width="1" fill="none" fill-rule="evenodd">
        <g id="main" transform="translate(-253.000000, -910.000000)">
            <rect fill="#FFFFFF" x="0" y="0" width="375" height="941"></rect>
            <g id="Group-10" transform="translate(0.000000, 896.000000)" fill-rule="nonzero">
                <g id="UI-Bars-/-Tab-bar">
                    <g id="icon/news" transform="translate(248.000000, 8.000000)">
                        <rect id="Rectangle" fill="#B7A99B" x="6" y="16" width="9" height="7"></rect>
                        <path d="M23,14 L7,14 L7,11 L23,11 L23,14 Z M23,18 L16,18 L16,16 L23,16 L23,18 Z M23,22 L16,22 L16,20 L23,20 L23,22 Z M14,22 L7,22 L7,16 L14,16 L14,22 Z M23.33,7.67 L21.67,6 L20,7.67 L18.33,6 L16.67,7.67 L15,6 L13.33,7.67 L11.67,6 L10,7.67 L8.33,6 L6.67,7.67 L5,6 L5,22 C5,23.1045695 5.8954305,24 7,24 L23,24 C24.1045695,24 25,23.1045695 25,22 L25,6 L23.33,7.67 Z" id="Shape" fill="#434656"></path>
                    </g>
                </g>
            </g>
        </g>
    </g>
</svg>