<?xml version="1.0" encoding="UTF-8"?>
<svg width="19px" height="19px" viewBox="0 0 19 19" version="1.1" xmlns="http://www.w3.org/2000/svg" xmlns:xlink="http://www.w3.org/1999/xlink">
    <!-- Generator: Sketch 51 (57462) - http://www.bohemiancoding.com/sketch -->
    <title>Fill 17</title>
    <desc>Created with Sketch.</desc>
    <defs></defs>
    <g id="zsinagogo_app" stroke="none" stroke-width="1" fill="none" fill-rule="evenodd">
        <g id="explore" transform="translate(-331.000000, -440.000000)">
            <rect fill="#FFFFFF" x="0" y="0" width="375" height="1084"></rect>
            <path d="M343.579583,451.459375 C343.888333,451.768125 343.888333,452.270833 343.579583,452.579583 C343.425208,452.733958 343.223333,452.809167 343.0175,452.809167 C342.815625,452.809167 342.61375,452.733958 342.459375,452.579583 L340.5,450.620208 L338.540625,452.579583 C338.38625,452.733958 338.184375,452.809167 337.9825,452.809167 C337.776667,452.809167 337.574792,452.733958 337.420417,452.579583 C337.111667,452.270833 337.111667,451.768125 337.420417,451.459375 L339.379792,449.5 L337.420417,447.540625 C337.111667,447.231875 337.111667,446.729167 337.420417,446.420417 C337.729167,446.111667 338.231875,446.111667 338.540625,446.420417 L340.5,448.379792 L342.459375,446.420417 C342.768125,446.111667 343.270833,446.111667 343.579583,446.420417 C343.888333,446.729167 343.888333,447.231875 343.579583,447.540625 L341.620208,449.5 L343.579583,451.459375 Z M340.5,440 C335.255208,440 331,444.255208 331,449.5 C331,454.744792 335.255208,459 340.5,459 C345.744792,459 350,454.744792 350,449.5 C350,444.255208 345.744792,440 340.5,440 Z" id="Fill-17" fill="#434656"></path>
        </g>
    </g>
</svg>